<svg width="27" height="27" viewBox="0 0 27 27" fill="none" xmlns="http://www.w3.org/2000/svg">
<path d="M25.7726 13.4999C26.4504 13.4999 27.0057 14.0505 26.9442 14.7255C26.8208 16.0782 26.4939 17.4069 25.9723 18.6662C25.2938 20.304 24.2994 21.7923 23.0459 23.0459C21.7923 24.2994 20.304 25.2938 18.6662 25.9723C17.0283 26.6507 15.2728 26.9999 13.4999 26.9999C11.7271 26.9999 9.97163 26.6507 8.33374 25.9723C6.69585 25.2938 5.20763 24.2994 3.95404 23.0459C2.70046 21.7923 1.70606 20.304 1.02762 18.6662C0.506037 17.4069 0.179059 16.0782 0.0557468 14.7255C-0.00578748 14.0505 0.549467 13.4999 1.22727 13.4999L13.4999 13.4999H25.7726Z" fill="#F85826"/>
<mask id="path-2-outside-1_5411_2819" maskUnits="userSpaceOnUse" x="3.49991" y="5.2998" width="20" height="11" fill="black">
<rect fill="white" x="3.49991" y="5.2998" width="20" height="11"/>
<path d="M21.6817 15.2998C22.1335 15.2998 22.5037 14.9328 22.4627 14.4828C22.3805 13.581 22.1625 12.6952 21.8148 11.8557C21.3625 10.7638 20.6995 9.77163 19.8638 8.9359C19.0281 8.10018 18.0359 7.43725 16.944 6.98495C15.8521 6.53266 14.6818 6.29987 13.4999 6.29987C12.318 6.29987 11.1477 6.53267 10.0557 6.98495C8.96381 7.43725 7.97166 8.10018 7.13594 8.9359C6.30021 9.77163 5.63728 10.7638 5.18499 11.8557C4.83727 12.6952 4.61928 13.581 4.53707 14.4828C4.49605 14.9328 4.86622 15.2998 5.31809 15.2998H6.80563C7.2575 15.2998 7.61797 14.9318 7.68068 14.4843C7.74953 13.9931 7.88044 13.5115 8.0711 13.0512C8.3664 12.3383 8.79923 11.6905 9.34487 11.1448C9.89051 10.5992 10.5383 10.1664 11.2512 9.87107C11.9641 9.57577 12.7282 9.42378 13.4999 9.42378C14.2715 9.42378 15.0356 9.57577 15.7485 9.87107C16.4615 10.1664 17.1092 10.5992 17.6549 11.1448C18.2005 11.6905 18.6333 12.3383 18.9286 13.0512C19.1193 13.5115 19.2502 13.9931 19.3191 14.4843C19.3818 14.9318 19.7422 15.2998 20.1941 15.2998H21.6817Z"/>
</mask>
<path d="M21.6817 15.2998C22.1335 15.2998 22.5037 14.9328 22.4627 14.4828C22.3805 13.581 22.1625 12.6952 21.8148 11.8557C21.3625 10.7638 20.6995 9.77163 19.8638 8.9359C19.0281 8.10018 18.0359 7.43725 16.944 6.98495C15.8521 6.53266 14.6818 6.29987 13.4999 6.29987C12.318 6.29987 11.1477 6.53267 10.0557 6.98495C8.96381 7.43725 7.97166 8.10018 7.13594 8.9359C6.30021 9.77163 5.63728 10.7638 5.18499 11.8557C4.83727 12.6952 4.61928 13.581 4.53707 14.4828C4.49605 14.9328 4.86622 15.2998 5.31809 15.2998H6.80563C7.2575 15.2998 7.61797 14.9318 7.68068 14.4843C7.74953 13.9931 7.88044 13.5115 8.0711 13.0512C8.3664 12.3383 8.79923 11.6905 9.34487 11.1448C9.89051 10.5992 10.5383 10.1664 11.2512 9.87107C11.9641 9.57577 12.7282 9.42378 13.4999 9.42378C14.2715 9.42378 15.0356 9.57577 15.7485 9.87107C16.4615 10.1664 17.1092 10.5992 17.6549 11.1448C18.2005 11.6905 18.6333 12.3383 18.9286 13.0512C19.1193 13.5115 19.2502 13.9931 19.3191 14.4843C19.3818 14.9318 19.7422 15.2998 20.1941 15.2998H21.6817Z" fill="#EEA38C"/>
<path d="M21.6817 15.2998C22.1335 15.2998 22.5037 14.9328 22.4627 14.4828C22.3805 13.581 22.1625 12.6952 21.8148 11.8557C21.3625 10.7638 20.6995 9.77163 19.8638 8.9359C19.0281 8.10018 18.0359 7.43725 16.944 6.98495C15.8521 6.53266 14.6818 6.29987 13.4999 6.29987C12.318 6.29987 11.1477 6.53267 10.0557 6.98495C8.96381 7.43725 7.97166 8.10018 7.13594 8.9359C6.30021 9.77163 5.63728 10.7638 5.18499 11.8557C4.83727 12.6952 4.61928 13.581 4.53707 14.4828C4.49605 14.9328 4.86622 15.2998 5.31809 15.2998H6.80563C7.2575 15.2998 7.61797 14.9318 7.68068 14.4843C7.74953 13.9931 7.88044 13.5115 8.0711 13.0512C8.3664 12.3383 8.79923 11.6905 9.34487 11.1448C9.89051 10.5992 10.5383 10.1664 11.2512 9.87107C11.9641 9.57577 12.7282 9.42378 13.4999 9.42378C14.2715 9.42378 15.0356 9.57577 15.7485 9.87107C16.4615 10.1664 17.1092 10.5992 17.6549 11.1448C18.2005 11.6905 18.6333 12.3383 18.9286 13.0512C19.1193 13.5115 19.2502 13.9931 19.3191 14.4843C19.3818 14.9318 19.7422 15.2998 20.1941 15.2998H21.6817Z" stroke="white" stroke-width="1.79999" mask="url(#path-2-outside-1_5411_2819)"/>
</svg>
