<svg width="27" height="27" viewBox="0 0 27 27" fill="none" xmlns="http://www.w3.org/2000/svg">
<path d="M25.7726 13.4999C26.4504 13.4999 27.0057 14.0505 26.9441 14.7255C26.8208 16.0782 26.4938 17.4069 25.9722 18.6662C25.2938 20.304 24.2994 21.7923 23.0458 23.0459C21.7922 24.2994 20.304 25.2938 18.6661 25.9723C17.0282 26.6507 15.2728 26.9999 13.4999 26.9999C11.7271 26.9999 9.9716 26.6507 8.33371 25.9723C6.69582 25.2938 5.2076 24.2994 3.95401 23.0459C2.70043 21.7923 1.70603 20.304 1.02759 18.6662C0.506007 17.4069 0.179028 16.0782 0.0557163 14.7255C-0.005818 14.0505 0.549436 13.4999 1.22724 13.4999L13.4999 13.4999H25.7726Z" fill="#4D4D4D"/>
<mask id="path-2-outside-1_5316_2274" maskUnits="userSpaceOnUse" x="3.49988" y="5.2998" width="20" height="11" fill="black">
<rect fill="white" x="3.49988" y="5.2998" width="20" height="11"/>
<path d="M21.6816 15.2998C22.1335 15.2998 22.5037 14.9328 22.4626 14.4828C22.3804 13.581 22.1625 12.6952 21.8147 11.8557C21.3624 10.7638 20.6995 9.77163 19.8638 8.9359C19.0281 8.10018 18.0359 7.43725 16.944 6.98495C15.8521 6.53266 14.6817 6.29987 13.4998 6.29987C12.318 6.29987 11.1476 6.53267 10.0557 6.98495C8.96378 7.43725 7.97163 8.10018 7.13591 8.9359C6.30018 9.77163 5.63725 10.7638 5.18496 11.8557C4.83724 12.6952 4.61925 13.581 4.53704 14.4828C4.49602 14.9328 4.86619 15.2998 5.31806 15.2998H6.8056C7.25747 15.2998 7.61794 14.9318 7.68065 14.4843C7.7495 13.9931 7.88041 13.5115 8.07107 13.0512C8.36637 12.3383 8.7992 11.6905 9.34484 11.1448C9.89048 10.5992 10.5383 10.1664 11.2512 9.87107C11.9641 9.57577 12.7282 9.42378 13.4998 9.42378C14.2715 9.42378 15.0356 9.57577 15.7485 9.87107C16.4614 10.1664 17.1092 10.5992 17.6548 11.1448C18.2005 11.6905 18.6333 12.3383 18.9286 13.0512C19.1193 13.5115 19.2502 13.9931 19.319 14.4843C19.3818 14.9318 19.7422 15.2998 20.1941 15.2998H21.6816Z"/>
</mask>
<path d="M21.6816 15.2998C22.1335 15.2998 22.5037 14.9328 22.4626 14.4828C22.3804 13.581 22.1625 12.6952 21.8147 11.8557C21.3624 10.7638 20.6995 9.77163 19.8638 8.9359C19.0281 8.10018 18.0359 7.43725 16.944 6.98495C15.8521 6.53266 14.6817 6.29987 13.4998 6.29987C12.318 6.29987 11.1476 6.53267 10.0557 6.98495C8.96378 7.43725 7.97163 8.10018 7.13591 8.9359C6.30018 9.77163 5.63725 10.7638 5.18496 11.8557C4.83724 12.6952 4.61925 13.581 4.53704 14.4828C4.49602 14.9328 4.86619 15.2998 5.31806 15.2998H6.8056C7.25747 15.2998 7.61794 14.9318 7.68065 14.4843C7.7495 13.9931 7.88041 13.5115 8.07107 13.0512C8.36637 12.3383 8.7992 11.6905 9.34484 11.1448C9.89048 10.5992 10.5383 10.1664 11.2512 9.87107C11.9641 9.57577 12.7282 9.42378 13.4998 9.42378C14.2715 9.42378 15.0356 9.57577 15.7485 9.87107C16.4614 10.1664 17.1092 10.5992 17.6548 11.1448C18.2005 11.6905 18.6333 12.3383 18.9286 13.0512C19.1193 13.5115 19.2502 13.9931 19.319 14.4843C19.3818 14.9318 19.7422 15.2998 20.1941 15.2998H21.6816Z" fill="#8B8B8B"/>
<path d="M21.6816 15.2998C22.1335 15.2998 22.5037 14.9328 22.4626 14.4828C22.3804 13.581 22.1625 12.6952 21.8147 11.8557C21.3624 10.7638 20.6995 9.77163 19.8638 8.9359C19.0281 8.10018 18.0359 7.43725 16.944 6.98495C15.8521 6.53266 14.6817 6.29987 13.4998 6.29987C12.318 6.29987 11.1476 6.53267 10.0557 6.98495C8.96378 7.43725 7.97163 8.10018 7.13591 8.9359C6.30018 9.77163 5.63725 10.7638 5.18496 11.8557C4.83724 12.6952 4.61925 13.581 4.53704 14.4828C4.49602 14.9328 4.86619 15.2998 5.31806 15.2998H6.8056C7.25747 15.2998 7.61794 14.9318 7.68065 14.4843C7.7495 13.9931 7.88041 13.5115 8.07107 13.0512C8.36637 12.3383 8.7992 11.6905 9.34484 11.1448C9.89048 10.5992 10.5383 10.1664 11.2512 9.87107C11.9641 9.57577 12.7282 9.42378 13.4998 9.42378C14.2715 9.42378 15.0356 9.57577 15.7485 9.87107C16.4614 10.1664 17.1092 10.5992 17.6548 11.1448C18.2005 11.6905 18.6333 12.3383 18.9286 13.0512C19.1193 13.5115 19.2502 13.9931 19.319 14.4843C19.3818 14.9318 19.7422 15.2998 20.1941 15.2998H21.6816Z" stroke="white" stroke-width="1.79999" mask="url(#path-2-outside-1_5316_2274)"/>
</svg>
