<svg width="36" height="36" viewBox="0 0 36 36" fill="none" xmlns="http://www.w3.org/2000/svg">
<rect width="36" height="36" rx="4" fill="black"/>
<path d="M26.3333 13.8195H21.3333" stroke="#FFF7F5" stroke-miterlimit="10" stroke-linecap="round" stroke-linejoin="round"/>
<path d="M13 13.8195H9.66666" stroke="#FFF7F5" stroke-miterlimit="10" stroke-linecap="round" stroke-linejoin="round"/>
<path d="M16.3333 16.7362C17.9442 16.7362 19.25 15.4303 19.25 13.8195C19.25 12.2087 17.9442 10.9028 16.3333 10.9028C14.7225 10.9028 13.4167 12.2087 13.4167 13.8195C13.4167 15.4303 14.7225 16.7362 16.3333 16.7362Z" stroke="#FFF7F5" stroke-miterlimit="10" stroke-linecap="round" stroke-linejoin="round"/>
<path d="M26.3333 22.9861H23" stroke="#FFF7F5" stroke-miterlimit="10" stroke-linecap="round" stroke-linejoin="round"/>
<path d="M14.6667 22.9861H9.66666" stroke="#FFF7F5" stroke-miterlimit="10" stroke-linecap="round" stroke-linejoin="round"/>
<path d="M19.6667 25.9029C21.2775 25.9029 22.5833 24.597 22.5833 22.9862C22.5833 21.3754 21.2775 20.0695 19.6667 20.0695C18.0558 20.0695 16.75 21.3754 16.75 22.9862C16.75 24.597 18.0558 25.9029 19.6667 25.9029Z" stroke="#FFF7F5" stroke-miterlimit="10" stroke-linecap="round" stroke-linejoin="round"/>
</svg>
