<svg width="27" height="27" viewBox="0 0 27 27" fill="none" xmlns="http://www.w3.org/2000/svg">
<path d="M25.1059 13.1507C25.7661 13.1507 26.307 13.687 26.2471 14.3446C26.1269 15.6623 25.8084 16.9566 25.3003 18.1832C24.6395 19.7787 23.6708 21.2285 22.4496 22.4496C21.2285 23.6708 19.7787 24.6395 18.1832 25.3003C16.5877 25.9612 14.8777 26.3014 13.1507 26.3014C11.4237 26.3014 9.71365 25.9612 8.11814 25.3003C6.52262 24.6395 5.0729 23.6708 3.85175 22.4496C2.63059 21.2285 1.66192 19.7787 1.00104 18.1832C0.492945 16.9566 0.174426 15.6622 0.0543045 14.3446C-0.00563777 13.687 0.535251 13.1507 1.19552 13.1507L13.1507 13.1507H25.1059Z" fill="#2E1200"/>
<mask id="path-2-outside-1_5805_4456" maskUnits="userSpaceOnUse" x="3.38354" y="4.6709" width="20" height="12" fill="black">
<rect fill="white" x="3.38354" y="4.6709" width="20" height="12"/>
<path d="M21.1208 14.9038C21.561 14.9038 21.9216 14.5462 21.8816 14.1079C21.8015 13.2294 21.5892 12.3665 21.2504 11.5487C20.8098 10.4851 20.1641 9.51859 19.35 8.70448C18.5359 7.89038 17.5694 7.2446 16.5057 6.80401C15.442 6.36342 14.302 6.13665 13.1507 6.13665C11.9994 6.13665 10.8593 6.36342 9.79563 6.80401C8.73196 7.2446 7.76548 7.89038 6.95138 8.70448C6.13727 9.51859 5.49149 10.4851 5.0509 11.5487C4.71218 12.3665 4.49983 13.2294 4.41975 14.1079C4.37979 14.5462 4.74038 14.9038 5.18056 14.9038H6.62962C7.06979 14.9038 7.42093 14.5452 7.48203 14.1093C7.54909 13.6308 7.67662 13.1617 7.86235 12.7133C8.15001 12.0188 8.57163 11.3878 9.10316 10.8563C9.63469 10.3247 10.2657 9.90311 10.9602 9.61545C11.6546 9.32779 12.399 9.17974 13.1507 9.17974C13.9024 9.17974 14.6467 9.32779 15.3412 9.61545C16.0356 9.90311 16.6666 10.3247 17.1982 10.8563C17.7297 11.3878 18.1513 12.0188 18.439 12.7133C18.6247 13.1617 18.7522 13.6308 18.8193 14.1093C18.8804 14.5452 19.2315 14.9038 19.6717 14.9038H21.1208Z"/>
</mask>
<path d="M21.1208 14.9038C21.561 14.9038 21.9216 14.5462 21.8816 14.1079C21.8015 13.2294 21.5892 12.3665 21.2504 11.5487C20.8098 10.4851 20.1641 9.51859 19.35 8.70448C18.5359 7.89038 17.5694 7.2446 16.5057 6.80401C15.442 6.36342 14.302 6.13665 13.1507 6.13665C11.9994 6.13665 10.8593 6.36342 9.79563 6.80401C8.73196 7.2446 7.76548 7.89038 6.95138 8.70448C6.13727 9.51859 5.49149 10.4851 5.0509 11.5487C4.71218 12.3665 4.49983 13.2294 4.41975 14.1079C4.37979 14.5462 4.74038 14.9038 5.18056 14.9038H6.62962C7.06979 14.9038 7.42093 14.5452 7.48203 14.1093C7.54909 13.6308 7.67662 13.1617 7.86235 12.7133C8.15001 12.0188 8.57163 11.3878 9.10316 10.8563C9.63469 10.3247 10.2657 9.90311 10.9602 9.61545C11.6546 9.32779 12.399 9.17974 13.1507 9.17974C13.9024 9.17974 14.6467 9.32779 15.3412 9.61545C16.0356 9.90311 16.6666 10.3247 17.1982 10.8563C17.7297 11.3878 18.1513 12.0188 18.439 12.7133C18.6247 13.1617 18.7522 13.6308 18.8193 14.1093C18.8804 14.5452 19.2315 14.9038 19.6717 14.9038H21.1208Z" fill="#FF8F17"/>
<path d="M21.1208 14.9038C21.561 14.9038 21.9216 14.5462 21.8816 14.1079C21.8015 13.2294 21.5892 12.3665 21.2504 11.5487C20.8098 10.4851 20.1641 9.51859 19.35 8.70448C18.5359 7.89038 17.5694 7.2446 16.5057 6.80401C15.442 6.36342 14.302 6.13665 13.1507 6.13665C11.9994 6.13665 10.8593 6.36342 9.79563 6.80401C8.73196 7.2446 7.76548 7.89038 6.95138 8.70448C6.13727 9.51859 5.49149 10.4851 5.0509 11.5487C4.71218 12.3665 4.49983 13.2294 4.41975 14.1079C4.37979 14.5462 4.74038 14.9038 5.18056 14.9038H6.62962C7.06979 14.9038 7.42093 14.5452 7.48203 14.1093C7.54909 13.6308 7.67662 13.1617 7.86235 12.7133C8.15001 12.0188 8.57163 11.3878 9.10316 10.8563C9.63469 10.3247 10.2657 9.90311 10.9602 9.61545C11.6546 9.32779 12.399 9.17974 13.1507 9.17974C13.9024 9.17974 14.6467 9.32779 15.3412 9.61545C16.0356 9.90311 16.6666 10.3247 17.1982 10.8563C17.7297 11.3878 18.1513 12.0188 18.439 12.7133C18.6247 13.1617 18.7522 13.6308 18.8193 14.1093C18.8804 14.5452 19.2315 14.9038 19.6717 14.9038H21.1208Z" stroke="#FFFAF6" stroke-width="1.75342" mask="url(#path-2-outside-1_5805_4456)"/>
</svg>
