<svg width="75" height="25" viewBox="0 0 75 25" fill="none" xmlns="http://www.w3.org/2000/svg">
<path d="M35.4808 8.46053C35.4708 8.86263 35.4507 9.26976 35.4205 9.68192C35.4004 10.084 35.3652 10.4912 35.315 10.9033H34.9229L34.3047 9.24463H31.0175V13.2406H33.4753L34.0634 12.1247H34.4404C34.5007 13.1199 34.5007 14.1352 34.4404 15.1707H34.0634L33.4753 14.0247H31.0175V18.2317H34.4856L35.2245 16.4222H35.6015C35.6718 16.8444 35.7221 17.2717 35.7523 17.7039C35.7824 18.1362 35.7874 18.5735 35.7673 19.0158H28.3334V18.5785C28.6853 18.4177 29.0974 18.297 29.5699 18.2166V9.27479C29.3688 9.23458 29.1628 9.18432 28.9516 9.124C28.7405 9.05363 28.5345 8.97824 28.3334 8.89782V8.46053H35.4808ZM37.8336 8.73195L36.6876 8.61132V8.21926C36.9993 8.08858 37.3461 7.98303 37.7281 7.9026C38.1201 7.82218 38.482 7.74679 38.8138 7.67642H39.1907V12.9691H39.2209C39.3918 12.4565 39.6783 12.0493 40.0804 11.7477C40.4926 11.4462 40.9449 11.2954 41.4375 11.2954C42.3523 11.2954 43.051 11.607 43.5335 12.2303C44.0261 12.8535 44.2724 13.8136 44.2724 15.1104C44.2724 16.4373 43.9356 17.4426 43.2621 18.1261C42.5986 18.8097 41.6386 19.1515 40.382 19.1515C40.1307 19.1515 39.8793 19.1314 39.628 19.0912C39.3767 19.061 39.1355 19.0208 38.9042 18.9706C38.673 18.9203 38.4619 18.86 38.2709 18.7896C38.09 18.7193 37.9442 18.6489 37.8336 18.5785V8.73195ZM41.0304 12.2303C40.5478 12.2303 40.1558 12.3961 39.8542 12.7279C39.5526 13.0496 39.3315 13.4617 39.1907 13.9644V18.1714C39.3717 18.2719 39.5928 18.3523 39.8542 18.4126C40.1156 18.4629 40.392 18.488 40.6836 18.488C41.347 18.488 41.8698 18.2015 42.2518 17.6285C42.6338 17.0455 42.8248 16.2061 42.8248 15.1104C42.8248 14.7183 42.7896 14.3464 42.7192 13.9945C42.6589 13.6427 42.5534 13.3361 42.4026 13.0747C42.2618 12.8133 42.0759 12.6072 41.8446 12.4565C41.6235 12.3057 41.3521 12.2303 41.0304 12.2303ZM46.0505 16.0302C46.0505 15.3969 46.0656 14.7786 46.0957 14.1755C46.1259 13.5622 46.141 12.9541 46.141 12.3509L45.1458 12.2303V11.8382C45.4674 11.7176 45.7942 11.612 46.1259 11.5216C46.4677 11.4311 46.7994 11.3557 47.1211 11.2954H47.4981C47.4981 12.0493 47.483 12.7982 47.4528 13.5421C47.4227 14.286 47.4076 15.0249 47.4076 15.7587C47.4076 16.1508 47.4277 16.5026 47.4679 16.8143C47.5182 17.1259 47.5986 17.3873 47.7092 17.5984C47.8298 17.8095 47.9907 17.9754 48.1917 18.096C48.3928 18.2066 48.6491 18.2619 48.9607 18.2619C49.4131 18.2619 49.7901 18.101 50.0917 17.7793C50.4033 17.4476 50.6446 17.0204 50.8154 16.4976V12.3509L49.8353 12.2303V11.8382C50.1469 11.7176 50.4686 11.612 50.8004 11.5216C51.1422 11.4311 51.4739 11.3557 51.7956 11.2954H52.1726V18.1563L53.1678 18.2769V18.5936C52.8762 18.7243 52.5797 18.8399 52.2781 18.9404C51.9866 19.0409 51.68 19.1163 51.3583 19.1666H50.9813L50.8758 17.3722H50.8154C50.7652 17.5833 50.6747 17.7994 50.544 18.0206C50.4234 18.2317 50.2626 18.4277 50.0615 18.6087C49.8604 18.7796 49.6292 18.9203 49.3679 19.0309C49.1166 19.1415 48.8401 19.1968 48.5385 19.1968C48.1364 19.1968 47.7795 19.1465 47.4679 19.046C47.1663 18.9555 46.91 18.7896 46.6989 18.5484C46.4878 18.3071 46.3269 17.9854 46.2164 17.5833C46.1058 17.1711 46.0505 16.6534 46.0505 16.0302ZM62.2486 19.0158H59.0066V18.6388C59.2781 18.4981 59.5746 18.3775 59.8963 18.2769V14.7032C59.8963 13.9392 59.7857 13.3361 59.5646 12.8937C59.3434 12.4514 58.9413 12.2303 58.3582 12.2303C58.1069 12.2303 57.8707 12.2755 57.6495 12.366C57.4384 12.4565 57.2474 12.5821 57.0765 12.743C56.9157 12.8937 56.7749 13.0697 56.6543 13.2707C56.5337 13.4617 56.4382 13.6628 56.3678 13.8739V18.2769C56.6794 18.3373 56.981 18.4579 57.2725 18.6388V19.0158H54.0155V18.6388C54.2668 18.5081 54.5985 18.3875 55.0107 18.2769V12.3509L54.0155 12.2303V11.8382C54.2769 11.7276 54.5784 11.6271 54.9202 11.5366C55.262 11.4462 55.6189 11.3657 55.9908 11.2954H56.3678V12.9842H56.3829C56.594 12.5218 56.8956 12.1247 57.2876 11.793C57.6897 11.4612 58.1723 11.2954 58.7352 11.2954C59.1373 11.2954 59.4942 11.3456 59.8058 11.4462C60.1275 11.5366 60.3939 11.7025 60.605 11.9438C60.8161 12.185 60.9769 12.5117 61.0875 12.9239C61.1981 13.326 61.2534 13.8387 61.2534 14.462V18.2769C61.6555 18.3473 61.9872 18.4679 62.2486 18.6388V19.0158ZM66.467 19.0158H63.1194V18.6388C63.4512 18.478 63.7829 18.3574 64.1146 18.2769V8.73195L62.9686 8.61132V8.21926C63.23 8.09863 63.5567 7.99308 63.9488 7.9026C64.3408 7.81213 64.7228 7.73674 65.0948 7.67642H65.4717V18.2769C65.8035 18.3574 66.1352 18.478 66.467 18.6388V19.0158ZM67.67 12.2303C67.5192 12.1901 67.3784 12.1398 67.2478 12.0795C67.1271 12.0192 67.0015 11.9488 66.8708 11.8684V11.4763H70.0223V11.8533C69.8112 11.994 69.5247 12.1197 69.1628 12.2303L71.0929 16.6936L71.3794 17.6285H71.4096L71.6357 16.6786L73.0682 12.2303C72.7667 12.17 72.4902 12.0493 72.2389 11.8684V11.4763H74.8174V11.8684C74.6063 12.0091 74.3198 12.1297 73.9579 12.2303L71.6056 19.0158C71.3643 19.6592 71.1331 20.1769 70.912 20.5689C70.7008 20.971 70.4847 21.2877 70.2636 21.5189C70.0525 21.7501 69.8313 21.916 69.6001 22.0165C69.3789 22.1271 69.1377 22.2075 68.8763 22.2578C68.7657 22.0668 68.6652 21.8557 68.5747 21.6245C68.4943 21.3933 68.4239 21.1721 68.3636 20.961L68.5596 20.5991H70.1278C70.1882 20.5187 70.2384 20.4383 70.2786 20.3578C70.3289 20.2875 70.3792 20.197 70.4294 20.0864C70.4797 19.9758 70.535 19.8351 70.5953 19.6642C70.6556 19.4933 70.726 19.2772 70.8064 19.0158L67.67 12.2303Z" fill="#0C0000"/>
<path d="M21.5903 11.3092C22.1582 11.3092 22.6233 11.7705 22.5718 12.3359C22.4685 13.4691 22.1945 14.5822 21.7576 15.6371C21.1893 17.0092 20.3562 18.2559 19.3061 19.3061C18.2559 20.3562 17.0092 21.1893 15.6371 21.7576C14.265 22.3259 12.7944 22.6185 11.3092 22.6185C9.82408 22.6185 8.35347 22.3259 6.98137 21.7576C5.60928 21.1893 4.36256 20.3562 3.3124 19.3061C2.26224 18.2559 1.42921 17.0092 0.860864 15.6371C0.42392 14.5822 0.150002 13.4691 0.0467005 12.3359C-0.00484829 11.7705 0.460301 11.3092 1.02811 11.3092L11.3092 11.3092H21.5903Z" fill="#2E1200"/>
<mask id="path-3-outside-1_5106_3573" maskUnits="userSpaceOnUse" x="2.76978" y="4.35663" width="17" height="10" fill="black">
<rect fill="white" x="2.76978" y="4.35663" width="17" height="10"/>
<path d="M18.1633 12.8171C18.5419 12.8171 18.852 12.5096 18.8176 12.1327C18.7487 11.3772 18.5661 10.6352 18.2748 9.93191C17.8959 9.01717 17.3406 8.18603 16.6405 7.48592C15.9404 6.78581 15.1092 6.23046 14.1945 5.85156C13.2798 5.47267 12.2994 5.27766 11.3093 5.27766C10.3192 5.27766 9.33876 5.47267 8.42403 5.85157C7.50929 6.23046 6.67815 6.78581 5.97804 7.48592C5.27793 8.18603 4.72258 9.01717 4.34368 9.93191C4.05239 10.6352 3.86978 11.3772 3.80091 12.1327C3.76654 12.5096 4.07664 12.8171 4.45518 12.8171H5.70134C6.07988 12.8171 6.38185 12.5088 6.43439 12.1339C6.49206 11.7224 6.60173 11.319 6.76145 10.9334C7.00883 10.3361 7.37142 9.7935 7.82852 9.3364C8.28561 8.8793 8.82827 8.51671 9.4255 8.26933C10.0227 8.02195 10.6628 7.89463 11.3093 7.89463C11.9557 7.89462 12.5958 8.02195 13.193 8.26933C13.7903 8.51671 14.3329 8.8793 14.79 9.3364C15.2471 9.7935 15.6097 10.3361 15.8571 10.9334C16.0168 11.319 16.1265 11.7224 16.1841 12.1339C16.2367 12.5088 16.5386 12.8171 16.9172 12.8171H18.1633Z"/>
</mask>
<path d="M18.1633 12.8171C18.5419 12.8171 18.852 12.5096 18.8176 12.1327C18.7487 11.3772 18.5661 10.6352 18.2748 9.93191C17.8959 9.01717 17.3406 8.18603 16.6405 7.48592C15.9404 6.78581 15.1092 6.23046 14.1945 5.85156C13.2798 5.47267 12.2994 5.27766 11.3093 5.27766C10.3192 5.27766 9.33876 5.47267 8.42403 5.85157C7.50929 6.23046 6.67815 6.78581 5.97804 7.48592C5.27793 8.18603 4.72258 9.01717 4.34368 9.93191C4.05239 10.6352 3.86978 11.3772 3.80091 12.1327C3.76654 12.5096 4.07664 12.8171 4.45518 12.8171H5.70134C6.07988 12.8171 6.38185 12.5088 6.43439 12.1339C6.49206 11.7224 6.60173 11.319 6.76145 10.9334C7.00883 10.3361 7.37142 9.7935 7.82852 9.3364C8.28561 8.8793 8.82827 8.51671 9.4255 8.26933C10.0227 8.02195 10.6628 7.89463 11.3093 7.89463C11.9557 7.89462 12.5958 8.02195 13.193 8.26933C13.7903 8.51671 14.3329 8.8793 14.79 9.3364C15.2471 9.7935 15.6097 10.3361 15.8571 10.9334C16.0168 11.319 16.1265 11.7224 16.1841 12.1339C16.2367 12.5088 16.5386 12.8171 16.9172 12.8171H18.1633Z" fill="#FF8F17"/>
<path d="M18.1633 12.8171C18.5419 12.8171 18.852 12.5096 18.8176 12.1327C18.7487 11.3772 18.5661 10.6352 18.2748 9.93191C17.8959 9.01717 17.3406 8.18603 16.6405 7.48592C15.9404 6.78581 15.1092 6.23046 14.1945 5.85156C13.2798 5.47267 12.2994 5.27766 11.3093 5.27766C10.3192 5.27766 9.33876 5.47267 8.42403 5.85157C7.50929 6.23046 6.67815 6.78581 5.97804 7.48592C5.27793 8.18603 4.72258 9.01717 4.34368 9.93191C4.05239 10.6352 3.86978 11.3772 3.80091 12.1327C3.76654 12.5096 4.07664 12.8171 4.45518 12.8171H5.70134C6.07988 12.8171 6.38185 12.5088 6.43439 12.1339C6.49206 11.7224 6.60173 11.319 6.76145 10.9334C7.00883 10.3361 7.37142 9.7935 7.82852 9.3364C8.28561 8.8793 8.82827 8.51671 9.4255 8.26933C10.0227 8.02195 10.6628 7.89463 11.3093 7.89463C11.9557 7.89462 12.5958 8.02195 13.193 8.26933C13.7903 8.51671 14.3329 8.8793 14.79 9.3364C15.2471 9.7935 15.6097 10.3361 15.8571 10.9334C16.0168 11.319 16.1265 11.7224 16.1841 12.1339C16.2367 12.5088 16.5386 12.8171 16.9172 12.8171H18.1633Z" stroke="#FFFAF6" stroke-width="1.5079" mask="url(#path-3-outside-1_5106_3573)"/>
</svg>
