<svg width="328" height="134" viewBox="0 0 328 134" fill="none" xmlns="http://www.w3.org/2000/svg">
<path d="M121.614 18.0847C121.614 18.0847 116.958 17.6028 115.245 20.707C113.533 23.8113 116.637 30.5277 115.673 32.441C114.71 34.3543 112.034 36.6557 113.533 39.0101C115.031 41.3651 114.496 43.3985 113.747 44.4693C112.997 45.5396 112.73 47.841 116.209 47.841C119.687 47.841 131.408 47.841 131.408 47.841L130.342 21.7773C130.342 21.7773 126.806 18.4056 121.614 18.0847Z" fill="#2B2B2B"/>
<path d="M124.665 18.8328C124.665 18.8328 122.791 28.0382 131.034 31.8383C131.034 31.8383 131.438 29.6329 132.96 29.6438C134.793 29.657 135.877 35.7586 132.545 35.4774C132.545 35.4774 132.104 35.919 132.746 38.3672C133.388 40.8158 134.271 41.6187 133.87 43.264C133.468 44.9098 132.826 47.8399 135.355 47.8399C137.884 47.8399 143.945 47.8399 147.116 47.8399C150.287 47.8399 150.594 44.5907 147.799 41.4979C145.912 39.4104 144.949 38.2464 144.748 35.7983C144.547 33.3496 143.678 30.9906 141.718 28.841C139.811 26.7494 140.092 25.3491 137.403 22.9004C134.713 20.4523 126.016 17.5889 124.665 18.8328Z" fill="#2B2B2B"/>
<path d="M111.545 91.9775L107.705 117.156H142.72L140.892 91.9775H111.545Z" fill="#B75149"/>
<path d="M106.922 116.31H144.118C144.118 116.31 159.74 147.989 165.413 219.117H139.498L126.091 155.097H123.224L128.86 219.117H106.922C106.922 219.117 95.0548 169.008 97.9451 146.771C100.835 124.534 106.922 116.31 106.922 116.31Z" fill="#465ECB"/>
<path d="M111.503 96.0527C111.503 96.27 110.297 85.1244 112.817 74.0696C115.59 61.8992 120.737 49.7006 120.737 49.7006L123.225 48.6851L136.526 47.3652L140.892 48.6851L137.389 96.0521" fill="#FDC103"/>
<path d="M123.224 48.6855L116.828 78.4258L117.613 107.847H106.811L106.922 98.2413L83.3876 112.145L84.3922 84.0754C84.3922 84.0754 98.381 68.8916 102.426 63.8147C106.471 58.7379 111.642 49.8346 123.224 48.6855Z" fill="#CC75C4"/>
<path d="M106.305 66.0107C106.305 66.0107 101.265 73.9072 103.306 81.4263C105.347 88.9455 106.922 98.2405 106.922 98.2405" stroke="#2B2B2B" stroke-width="0.385994" stroke-miterlimit="10" stroke-linecap="round" stroke-linejoin="round"/>
<path d="M99.8199 76.8115L104.573 86.5275" stroke="#2B2B2B" stroke-width="0.385994" stroke-miterlimit="10" stroke-linecap="round" stroke-linejoin="round"/>
<path d="M104.185 122.554H121.169" stroke="#2B2B2B" stroke-width="0.385994" stroke-miterlimit="10" stroke-linecap="round" stroke-linejoin="round"/>
<path d="M124.525 122.554H142.794" stroke="#2B2B2B" stroke-width="0.385994" stroke-miterlimit="10" stroke-linecap="round" stroke-linejoin="round"/>
<path d="M108.876 116.69V122.554" stroke="#2B2B2B" stroke-width="0.385994" stroke-miterlimit="10" stroke-linecap="round" stroke-linejoin="round"/>
<path d="M111.214 116.69V122.554" stroke="#2B2B2B" stroke-width="0.385994" stroke-miterlimit="10" stroke-linecap="round" stroke-linejoin="round"/>
<path d="M116.05 116.69V122.554" stroke="#2B2B2B" stroke-width="0.385994" stroke-miterlimit="10" stroke-linecap="round" stroke-linejoin="round"/>
<path d="M118.389 116.69V122.554" stroke="#2B2B2B" stroke-width="0.385994" stroke-miterlimit="10" stroke-linecap="round" stroke-linejoin="round"/>
<path d="M129.545 116.69V122.554" stroke="#2B2B2B" stroke-width="0.385994" stroke-miterlimit="10" stroke-linecap="round" stroke-linejoin="round"/>
<path d="M131.884 116.69V122.554" stroke="#2B2B2B" stroke-width="0.385994" stroke-miterlimit="10" stroke-linecap="round" stroke-linejoin="round"/>
<path d="M136.72 116.69V122.554" stroke="#2B2B2B" stroke-width="0.385994" stroke-miterlimit="10" stroke-linecap="round" stroke-linejoin="round"/>
<path d="M139.059 116.69V122.554" stroke="#2B2B2B" stroke-width="0.385994" stroke-miterlimit="10" stroke-linecap="round" stroke-linejoin="round"/>
<path d="M124.414 116.69L125.146 155.097" stroke="#2B2B2B" stroke-width="0.385994" stroke-miterlimit="10" stroke-linecap="round" stroke-linejoin="round"/>
<path d="M121.169 116.69L121.429 128.27C121.46 129.644 121.98 130.96 122.896 131.984L124.744 134.052" stroke="#2B2B2B" stroke-width="0.385994" stroke-miterlimit="10" stroke-linecap="round" stroke-linejoin="round"/>
<path d="M139.498 122.922C139.498 122.922 138.653 137.292 151.805 138.072" stroke="#2B2B2B" stroke-width="0.385994" stroke-miterlimit="10" stroke-linecap="round" stroke-linejoin="round"/>
<path d="M109.803 124.751C109.803 124.751 108.05 135.024 99.5686 137.013" stroke="#2B2B2B" stroke-width="0.385994" stroke-miterlimit="10" stroke-linecap="round" stroke-linejoin="round"/>
<path d="M119.315 22.8447C119.315 22.8447 121.042 31.8309 130.738 32.2369C130.738 32.2369 130.789 29.1401 133.124 29.6473C135.459 30.1551 135.51 35.3337 132.718 36.0445L134.271 45.4569C134.379 46.1073 134.814 46.6565 135.424 46.9089L136.526 47.3661C136.526 47.3661 132.058 50.0063 126.829 50.0063C124.391 50.0063 123.224 48.6865 123.224 48.6865L124.087 47.9251L123.579 44.0157C123.579 44.0157 119.569 44.5362 117.573 40.9672C116.156 38.4328 116.764 34.0381 116.02 31.4491C115.759 30.5399 115.806 29.5732 116.072 28.6657C116.651 26.6983 117.755 23.7079 119.315 22.8447Z" fill="#B75149"/>
<path opacity="0.7" d="M123.58 44.0151C126.423 43.9266 129.202 40.9183 130.421 38.5576C130.421 38.5576 130.04 44.1549 123.821 45.8749L123.58 44.0151Z" fill="#B75149"/>
<path d="M132.096 33.5693C132.096 33.5693 131.704 30.5237 133.048 30.599C134.393 30.6749 134.152 32.9597 134 33.1501" stroke="#2B2B2B" stroke-width="0.406179" stroke-miterlimit="10"/>
<path d="M122.413 22.0742C122.413 22.0742 123.518 26.9354 130.421 29.7602" stroke="#2B2B2B" stroke-width="0.385994" stroke-miterlimit="10" stroke-linecap="round" stroke-linejoin="round"/>
<path d="M126.417 23.583C126.417 23.583 128.404 26.5418 132.043 27.987" stroke="#2B2B2B" stroke-width="0.385994" stroke-miterlimit="10" stroke-linecap="round" stroke-linejoin="round"/>
<path d="M120.787 32.0837C121.244 31.3482 122.667 30.7645 123.885 31.3735" stroke="#2B2B2B" stroke-width="0.406179" stroke-miterlimit="10"/>
<path d="M118.757 31.3994L119.265 34.1155C119.265 34.1155 117.919 34.7245 118.021 35.1311C118.122 35.5371 118.833 35.6389 119.645 35.3847" stroke="#2B2B2B" stroke-width="0.406179" stroke-miterlimit="10"/>
<path opacity="0.5" d="M127.923 34.0052C128.377 35.0622 127.882 36.2889 126.819 36.7455C125.756 37.2015 124.526 36.7144 124.073 35.6574C123.619 34.5999 124.114 33.3732 125.176 32.9172C126.24 32.4611 127.469 32.9482 127.923 34.0052Z" fill="#B75149"/>
<path d="M118.122 32.3884C117.704 31.8933 116.633 32.0077 116.226 32.3884" stroke="#2B2B2B" stroke-width="0.406179" stroke-miterlimit="10"/>
<path d="M120.121 29.1143C120.121 29.1143 122.509 29.2856 123.885 29.2667" stroke="#2B2B2B" stroke-width="0.531661" stroke-miterlimit="10" stroke-linecap="round" stroke-linejoin="round"/>
<path d="M116.789 29.5527L115.891 30.8288" stroke="#2B2B2B" stroke-width="0.531661" stroke-miterlimit="10" stroke-linecap="round" stroke-linejoin="round"/>
<path d="M118.83 37.093L125.281 35.2832C125.281 35.2832 125.636 39.4985 123.047 40.1179C120.792 40.6567 118.83 37.093 118.83 37.093Z" fill="#FFECE3"/>
<path d="M55.7796 155.89L57.303 186.209L16.6224 183.822C16.5718 180.098 17.6886 174.511 17.6886 174.511C14.8109 165.2 18.6703 155.042 18.6703 155.042C17.6208 144.885 19.9521 138.621 19.9521 138.621C18.8301 125.077 21.3559 117.036 21.3559 117.036L54.7629 115.219L74.4007 118.163C79.6167 123.448 82.2839 138.451 82.2839 138.451C88.3786 142.345 90.653 157.863 90.653 157.863C97.9887 164.635 98.3407 175.695 98.3407 175.695C100.442 180.605 103.181 188.9 103.181 188.9L63.7318 186.586L55.7796 155.89Z" fill="#00A668"/>
<path d="M54.0624 124.027L55.7796 155.89" stroke="#2B2B2B" stroke-width="0.385994" stroke-miterlimit="10" stroke-linecap="round" stroke-linejoin="round"/>
<path d="M58.0369 124.571C58.0369 124.571 58.8271 134.277 59.1652 138.002C59.5034 141.726 54.9211 143.87 54.9211 143.87" stroke="#2B2B2B" stroke-width="0.385994" stroke-miterlimit="10" stroke-linecap="round" stroke-linejoin="round"/>
<path d="M19.449 140.365C19.7279 139.227 19.9533 138.621 19.9533 138.621C19.9361 138.415 19.9228 138.215 19.9073 138.012C27.6197 132.988 28.0131 121.724 28.0159 121.602L29.8217 121.647C29.8177 121.794 29.717 125.298 28.3058 129.406C26.5397 134.545 23.4883 138.312 19.449 140.365Z" fill="#FDC103"/>
<path d="M81.5628 135.051C81.7658 135.915 81.9257 136.653 82.043 137.22C72.0872 133.276 71.1671 125.012 71.1331 124.658L72.9303 124.48C72.9608 124.777 73.7371 131.388 81.5628 135.051Z" fill="#FDC103"/>
<path d="M3.97643 75.593C4.31515 72.1552 7.87029 67.7202 7.87029 67.7202C9.05553 60.3028 14.6419 55.8385 14.6419 55.8385C16.1652 51.2677 19.89 46.697 26.6616 43.5289C33.4332 40.3613 49.0081 36.5146 49.0081 36.5146C50.8702 33.6122 55.1028 31.6719 55.1028 31.6719L65.5422 33.6271C65.5422 33.6271 67.6366 34.9941 68.5613 37.0471C73.1666 39.1841 83.1638 42.53 87.6707 45.5675C93.6164 49.5747 94.7442 58.1238 94.7442 58.1238C98.5742 64.624 98.0422 69.511 98.0422 69.511C100.489 74.8449 100.338 80.0378 100.338 80.0378L82.6968 79.5726L79.7817 126.568L57.0494 127.702L56.0309 118.164L54.9331 126.179L18.5352 123.238L23.7833 78.5346L3.97643 75.593Z" fill="#465ECB"/>
<path d="M62.0998 46.5273L61.3878 50.6466L61.7892 56.8541L60.3222 74.4601" stroke="#2B2B2B" stroke-width="0.385994" stroke-miterlimit="10" stroke-linecap="round" stroke-linejoin="round"/>
<path d="M59.0363 41.6181L55.1027 47.7973C55.1027 47.7973 51.8863 43.5653 49.6009 37.6396C49.6009 37.6396 51.0398 45.2859 55.1027 50.1954C55.1027 50.1954 58.4836 46.612 59.0363 41.6181Z" fill="#FFECE3"/>
<path d="M65.9183 40.2074C65.9183 40.2074 67.1219 43.4802 67.9121 47.374C69.0973 43.7625 68.3071 37.9502 68.3071 37.9502C68.3071 37.9502 70.7903 42.3519 67.9121 49.7439C66.7268 46.9226 65.9183 40.2074 65.9183 40.2074Z" fill="#FFECE3"/>
<path d="M98.1021 79.9795L76.6165 78.9277L74.4013 103.664L35.2102 112.551C35.2102 112.551 64.4415 118.392 76.6159 120.508C88.7909 122.625 97.4246 120.508 99.0331 110.182C100.642 99.8543 98.1021 79.9795 98.1021 79.9795Z" fill="#82524E"/>
<path d="M90.4122 114.451C89.6088 115.656 89.6715 117.108 90.5525 117.697C91.4341 118.285 92.7999 117.786 93.6033 116.582C94.4072 115.377 94.344 113.925 93.463 113.336C92.5819 112.749 91.2161 113.248 90.4122 114.451Z" fill="#8F5A56"/>
<path d="M77.3866 103.709L87.1831 104.319" stroke="#2B2B2B" stroke-width="0.385994" stroke-miterlimit="10" stroke-linecap="round" stroke-linejoin="round"/>
<path d="M45.6221 60.4932C45.6221 60.4932 44.7756 64.8948 40.0352 68.1113" stroke="#2B2B2B" stroke-width="0.385994" stroke-miterlimit="10" stroke-linecap="round" stroke-linejoin="round"/>
<path d="M46.0171 67.4062C46.0171 67.4062 43.4776 69.5507 40.0357 70.284" stroke="#2B2B2B" stroke-width="0.385994" stroke-miterlimit="10" stroke-linecap="round" stroke-linejoin="round"/>
<path d="M80.8911 79.136L76.6165 78.9267C76.6165 78.9267 76.7775 77.9887 76.8563 77.7328C77.1749 76.7017 77.8696 74.536 77.9144 70.7876C77.9144 70.7876 79.4936 67.279 78.5068 63.2305" fill="#465ECB"/>
<path d="M79.7064 67.4062L92.7699 74.4596" stroke="#2B2B2B" stroke-width="0.385994" stroke-miterlimit="10" stroke-linecap="round" stroke-linejoin="round"/>
<path d="M53.0457 27.847C53.0457 27.847 49.6303 25.0279 49.4503 16.9918C49.4503 16.9918 44.592 13.2135 47.2909 9.43465C47.2909 9.43465 45.6715 4.27677 50.5895 4.15657C50.5895 4.15657 52.6886 -0.881124 58.2663 2.23753C61.8047 -1.90074 67.5026 0.378302 68.1623 3.61715C71.3407 2.71773 74.2035 3.9461 74.5796 7.09581C75.0592 11.1139 71.4609 12.9507 71.4609 12.9507L68.9421 19.5727L53.0457 27.847Z" fill="#2B2B2B"/>
<path d="M57.3031 12.9502C57.3031 12.9502 58.1496 16.1103 55.441 18.5934L54.143 24.4621L53.0147 19.609C53.0147 19.609 52.7323 17.0695 50.9266 17.3519C49.1208 17.6342 49.9674 23.0515 52.3373 23.5029L53.1274 36.0868L60.125 41.335L62.0998 46.5268L64.0752 40.8835L65.5423 39.0214V32.814C65.5423 32.814 68.5281 31.1848 69.2101 28.0736C69.9157 24.8572 68.7587 22.3177 68.7587 22.3177C68.7587 22.3177 69.6955 19.5515 69.2291 15.4081C69.125 14.4816 68.3837 13.753 67.4538 13.6857L57.3031 12.9502Z" fill="#82524E"/>
<path d="M65.5422 32.8146C63.2287 34.5496 57.2611 33.7456 55.1028 31.6719C55.1028 31.6719 58.8414 37.4279 65.5422 34.9728V32.8146Z" fill="#8F5A56"/>
<path d="M63.1435 36.3701C63.1435 36.3701 63.3977 37.0895 61.7892 38.1902" stroke="#2B2B2B" stroke-width="0.385994" stroke-miterlimit="10" stroke-linecap="round" stroke-linejoin="round"/>
<path d="M51.1526 20.6256C50.2589 19.5007 51.0709 17.1855 52.5126 18.7451C52.814 19.116 53.4034 20.1621 52.6052 19.4064L52.1917 19.0878C51.9306 18.8837 51.6074 18.756 51.5609 18.8474C51.2055 19.17 51.1773 20.0781 51.1526 20.6256Z" fill="#2B2B2B"/>
<path opacity="0.6" d="M55.7796 12.6689C55.7796 12.6689 52.0289 13.9669 49.954 15.7163" stroke="#FFECE3" stroke-width="0.385994" stroke-miterlimit="10"/>
<path opacity="0.6" d="M55.7797 13.9238C55.7797 13.9238 52.5471 15.2086 51.0111 16.4496" stroke="#FFECE3" stroke-width="0.385994" stroke-miterlimit="10"/>
<path opacity="0.6" d="M55.7797 15.1865L53.0458 16.4494" stroke="#FFECE3" stroke-width="0.385994" stroke-miterlimit="10"/>
<path d="M61.6484 28.3285C61.6484 28.6713 62.2609 28.949 63.0171 28.949C63.7728 28.949 64.3852 28.6713 64.3852 28.3285C64.3852 27.9858 63.7728 27.708 63.0171 27.708C62.2609 27.708 61.6484 27.9858 61.6484 28.3285Z" fill="#FFA19A"/>
<path d="M29.2247 98.1792L78.5486 105.204L83.9783 67.0807L34.6544 60.0558L29.2247 98.1792Z" fill="black"/>
<path d="M32.7381 67.5721L83.7187 74.833L84.806 67.1989L33.8254 59.938L32.7381 67.5721Z" fill="#F85826"/>
<path d="M82.1557 79.8487L32.8311 72.8252" stroke="#FFF7F5" stroke-width="0.495661" stroke-miterlimit="10"/>
<path d="M81.5496 84.1055L32.225 77.082" stroke="#FFF7F5" stroke-width="0.495661" stroke-miterlimit="10"/>
<path d="M80.9435 88.3619L31.6189 81.3379" stroke="#FFF7F5" stroke-width="0.495661" stroke-miterlimit="10"/>
<path d="M80.3374 92.6182L31.0128 85.5947" stroke="#FFF7F5" stroke-width="0.495661" stroke-miterlimit="10"/>
<path d="M79.7312 96.875L30.4066 89.8516" stroke="#FFF7F5" stroke-width="0.495661" stroke-miterlimit="10"/>
<path d="M79.125 101.132L29.8004 94.1084" stroke="#FFF7F5" stroke-width="0.495661" stroke-miterlimit="10"/>
<path d="M52.0806 101.434L55.6879 101.948L61.1176 63.8248L57.5103 63.3111L52.0806 101.434Z" fill="#FDC103"/>
<path d="M33.5618 67.6906L33.048 71.2979L82.3719 78.3228L82.8856 74.7155L33.5618 67.6906Z" fill="#FDC103"/>
<path d="M59.3118 63.5666C59.3118 63.5666 57.7798 57.1942 52.9802 52.3532C48.1811 47.5116 41.4602 50.3249 42.6811 55.3775C43.9019 60.4302 53.063 63.841 59.3118 63.5666Z" stroke="#FFECE3" stroke-width="0.385994" stroke-miterlimit="10" stroke-linecap="round" stroke-linejoin="round"/>
<path d="M59.3119 63.5672C59.3119 63.5672 62.5617 57.8762 68.5218 54.5666C74.4819 51.257 80.1505 55.8341 77.5672 60.3456C74.9846 64.8565 65.2352 65.5748 59.3119 63.5672Z" stroke="#FFECE3" stroke-width="0.385994" stroke-miterlimit="10" stroke-linecap="round" stroke-linejoin="round"/>
<path d="M6.47057 75.9629L31.9656 79.5721L28.8055 95.7905L65.5416 100.895C65.5416 100.895 67.4037 98.33 68.8708 97.1448C70.3378 95.9596 73.2724 94.2102 73.2724 94.2102C73.2724 94.2102 73.8366 95.4518 72.6519 96.3546C71.4667 97.2575 70.7334 98.4428 71.1285 99.0633C71.5236 99.6838 75.0224 98.4991 75.0224 98.4991C75.0224 98.4991 76.8281 96.5243 77.5056 95.8469C78.183 95.1694 79.1986 93.0255 79.7064 93.5897C80.2142 94.1538 79.7064 96.0728 79.7064 96.0728C79.7064 96.0728 80.7933 94.7962 81.3005 95.0711C81.8077 95.346 80.7784 98.0477 80.7784 98.0477C80.7784 98.0477 81.7376 96.8061 82.0763 97.3139C82.415 97.8217 80.8911 100.895 80.8911 100.895C80.8911 100.895 82.2304 99.7401 82.1252 100.418C82.0194 101.094 79.3108 104.593 79.3108 104.593C79.3108 104.593 73.3857 107.979 66.2191 107.302C66.2191 107.302 47.0413 113.929 21.3565 117.036C3.86316 119.153 -0.378057 105.791 0.0256488 100.516C0.703093 91.6712 6.47057 75.9629 6.47057 75.9629Z" fill="#82524E"/>
<path d="M79.3114 104.594C79.3114 104.594 73.3863 107.98 66.2197 107.302C66.2197 107.302 54.1677 111.467 36.3759 114.742" stroke="#2B2B2B" stroke-width="0.385994" stroke-miterlimit="10" stroke-linecap="round" stroke-linejoin="round"/>
<path d="M79.7065 96.0723L77.562 99.5147C77.562 99.5147 75.0225 101.236 73.5273 101.856" stroke="#2B2B2B" stroke-width="0.385994" stroke-miterlimit="10" stroke-linecap="round" stroke-linejoin="round"/>
<path d="M80.7784 98.0469L78.6339 101.264L75.0506 102.985" stroke="#2B2B2B" stroke-width="0.385994" stroke-miterlimit="10" stroke-linecap="round" stroke-linejoin="round"/>
<path d="M80.8911 100.896L79.1981 102.844L76.1231 104.311" stroke="#2B2B2B" stroke-width="0.385994" stroke-miterlimit="10" stroke-linecap="round" stroke-linejoin="round"/>
<path d="M28.8055 95.7904L11.2558 93.8438" stroke="#2B2B2B" stroke-width="0.385994" stroke-miterlimit="10" stroke-linecap="round" stroke-linejoin="round"/>
<path d="M4.50904 110.155C5.03236 111.47 6.29063 112.205 7.32003 111.795C8.34942 111.385 8.75945 109.987 8.23613 108.672C7.7128 107.357 6.45453 106.623 5.42514 107.032C4.39574 107.442 3.98571 108.84 4.50904 110.155Z" fill="#8F5A56"/>
<path d="M65.0379 19.7217L65.2392 21.3474L66.1789 23.2377L64.5048 23.929" stroke="#2B2B2B" stroke-width="0.459834" stroke-miterlimit="10" stroke-linecap="round" stroke-linejoin="round"/>
<path d="M66.674 24.7645L60.3619 24.6719C60.3619 24.6719 60.121 31.4561 63.5346 30.747C66.2019 30.1921 66.674 24.7645 66.674 24.7645Z" fill="#FFECE3"/>
<path d="M62.8929 19.536C62.8589 20.1508 62.5984 20.6362 62.3109 20.6201C62.0234 20.6045 61.8169 20.0933 61.8508 19.4785C61.8848 18.8638 62.1453 18.3784 62.4328 18.3939C62.7203 18.41 62.9262 18.9213 62.8929 19.536Z" fill="#2B2B2B"/>
<path d="M67.2312 19.7738C67.1973 20.3885 66.9368 20.8739 66.6493 20.8578C66.3612 20.8423 66.1553 20.331 66.1892 19.7162C66.2226 19.1015 66.4836 18.6161 66.7712 18.6322C67.0587 18.6478 67.2652 19.159 67.2312 19.7738Z" fill="#2B2B2B"/>
<path d="M60.0376 17.4286C60.7599 16.5637 62.1642 16.2158 63.1516 16.8334C62.0653 17.0692 61.1699 17.3159 60.0376 17.4286Z" fill="#2B2B2B"/>
<path d="M65.7906 16.9116C66.5721 16.5395 67.5911 16.8926 67.9143 17.7092C67.0517 17.5666 66.5226 17.3941 65.7906 16.9116Z" fill="#2B2B2B"/>
<path d="M137.466 47.6504C137.466 47.6504 149.675 50.9203 154.447 54.9815C159.219 59.0433 169.866 83.0333 173.739 93.1593C179.273 107.628 182.268 130.119 162.57 126.667C142.872 123.215 139.731 122.199 139.731 122.199V112.35L132.414 109.202L131.398 78.5379L137.466 47.6504Z" fill="#CC75C4"/>
<path d="M146.73 77.5225L153.127 105.445L140.892 103.617" stroke="#2B2B2B" stroke-width="0.385994" stroke-miterlimit="10" stroke-linecap="round" stroke-linejoin="round"/>
<path d="M150.182 57.8975C150.182 57.8975 144.439 66.3954 146.603 76.4053" stroke="#2B2B2B" stroke-width="0.385994" stroke-miterlimit="10" stroke-linecap="round" stroke-linejoin="round"/>
<path d="M149.726 64.7539L147.746 76.8622" stroke="#2B2B2B" stroke-width="0.385994" stroke-miterlimit="10" stroke-linecap="round" stroke-linejoin="round"/>
<path d="M153.128 105.445L162.672 106.766" stroke="#2B2B2B" stroke-width="0.385994" stroke-miterlimit="10" stroke-linecap="round" stroke-linejoin="round"/>
<path d="M163.585 102.525L155.894 104.886" stroke="#2B2B2B" stroke-width="0.385994" stroke-miterlimit="10" stroke-linecap="round" stroke-linejoin="round"/>
<path d="M94.1978 74.5557L127.999 87.8423L106.924 91.8696L94.1978 74.5557Z" fill="#FFD3E8"/>
<path d="M127.999 87.8423L108.351 91.08C107.677 91.1553 107.01 90.8816 106.584 90.3537L94.1978 74.5557L86.0202 94.6323C85.5176 95.8664 86.1295 97.2725 87.3751 97.7457L117.632 109.242C118.88 109.716 120.273 109.068 120.714 107.808L127.999 87.8423Z" fill="#FFECE3"/>
<path d="M86.1065 96.6547L105.833 89.4248" stroke="#2B2B2B" stroke-width="0.385994" stroke-miterlimit="10" stroke-linecap="round" stroke-linejoin="round"/>
<path d="M109.773 90.9219L119.68 109.106" stroke="#2B2B2B" stroke-width="0.385994" stroke-miterlimit="10" stroke-linecap="round" stroke-linejoin="round"/>
<path d="M108.485 93.4673C107.035 92.9164 105.991 93.8739 105.991 93.8739C105.991 93.8739 105.847 92.4649 104.397 91.914C102.947 91.3631 101.659 92.4879 101.236 93.6007C100.566 95.3639 101.918 97.5941 103.595 100.18C106.565 99.3601 109.057 98.5907 109.728 96.8275C110.151 95.7147 109.934 94.0182 108.485 93.4673Z" fill="#F85826"/>
<path d="M127.999 87.8423L107.393 90.9506L94.1978 74.5557" stroke="#2B2B2B" stroke-width="0.385994" stroke-miterlimit="10" stroke-linecap="round" stroke-linejoin="round"/>
<path d="M137.93 103.707L118.198 100.927C118.198 100.927 113.217 97.2723 111.214 96.8916C109.212 96.5109 105.861 96.2826 105.861 96.8916C105.861 97.5006 110.582 98.4144 110.582 98.4144C110.582 98.4144 104.947 98.0337 105.023 99.0234C105.099 100.014 110.125 100.111 110.125 100.111C110.125 100.111 105.404 100.318 105.48 100.927C105.556 101.536 109.896 101.688 109.896 101.688C109.896 101.688 106.317 101.917 106.394 102.526C106.469 103.135 109.44 102.907 109.44 102.907C109.44 102.907 113.705 106.106 117.055 104.887L136.931 114.33L137.93 103.707Z" fill="#B75149"/>
<path d="M117.056 104.887L136.932 114.33" stroke="#2B2B2B" stroke-width="0.385994" stroke-miterlimit="10" stroke-linecap="round" stroke-linejoin="round"/>
<path d="M136.932 114.33L137.931 103.707L118.199 100.928C118.199 100.928 113.218 97.2723 111.215 96.8916" stroke="#2B2B2B" stroke-width="0.385994" stroke-miterlimit="10" stroke-linecap="round" stroke-linejoin="round"/>
<path d="M140.892 118.213L144.62 118.621C145.073 112.91 144.351 106.904 143.981 104.374C143.873 103.631 143.305 103.044 142.568 102.906L136.094 101.688C136.438 110.024 135.504 117.255 135.02 120.325C134.881 121.209 135.454 122.047 136.328 122.236L142.197 123.505C143.087 123.698 143.979 123.131 144.149 122.235C144.302 121.432 144.422 120.604 144.513 119.765L140.892 118.213Z" fill="#FFD3E8"/>
<path d="M235.112 128.578L240.223 218.991L208.952 218.862L204.322 154.631L200.52 154.312C200.52 154.312 196.94 191.882 198.416 218.862H168.173C168.173 218.862 166.764 202.046 168.173 182.09C169.582 162.134 176.074 130.684 176.074 130.684L200.035 122.861L235.112 128.578Z" fill="#465ECB"/>
<path d="M202.096 154.445L201.298 126.231" stroke="#2B2B2B" stroke-width="0.385994" stroke-miterlimit="10" stroke-linecap="round" stroke-linejoin="round"/>
<path d="M197.147 129.035V141.176C197.147 143.549 198.389 145.749 200.421 146.976L201.91 147.874" stroke="#2B2B2B" stroke-width="0.385994" stroke-miterlimit="10" stroke-linecap="round" stroke-linejoin="round"/>
<path d="M224.499 131.483C224.499 131.483 223.98 146.492 236.133 146.651" stroke="#2B2B2B" stroke-width="0.385994" stroke-miterlimit="10" stroke-linecap="round" stroke-linejoin="round"/>
<path d="M182.302 132.257C182.302 132.257 181.941 144.736 173.047 146.65" stroke="#2B2B2B" stroke-width="0.385994" stroke-miterlimit="10" stroke-linecap="round" stroke-linejoin="round"/>
<path d="M260.367 95.2424C260.367 95.2424 260.057 91.9363 259.742 86.3563C259.426 80.7763 259.437 78.2966 256.802 73.4647C254.167 68.6329 254.633 59.3868 250.138 54.2531C245.643 49.1193 237.738 42.4921 225.958 37.2675C214.179 32.0429 207.732 29.1111 200.415 30.0077C190.991 31.163 172.03 43.5646 164.89 53.4968C159.895 60.4461 161.481 66.9813 158.536 71.0425C155.591 75.1037 157.296 81.7062 154.816 84.9606C152.336 88.2155 152.026 93.7955 152.026 93.7955H174.656L174.036 133.94C181.82 135.547 190.054 136.161 197.913 136.204L199.004 125.918L202.437 136.17C221.411 135.771 237.118 132.39 237.118 132.39L235.723 95.2424H260.367Z" fill="#00A668"/>
<path d="M203.213 6.48112C203.213 6.48112 206.988 5.15096 209.172 8.07755C211.355 11.0041 208.269 15.5277 209.493 18.5607C210.716 21.5942 209.588 26.8545 205.821 26.4899C204.171 26.3306 197.52 30.2682 195.178 28.6182C192.836 26.9689 189.962 23.6162 189.962 23.6162C189.962 23.6162 185.652 25.1597 185.067 21.6471C185.067 21.6471 182.129 21.1715 182.034 18.8798C181.981 17.6026 183.417 17.0172 183.417 17.0172C183.417 17.0172 177.223 13.799 179.426 8.6095C181.023 4.84962 184.216 5.61275 187.675 4.84962C191.134 4.08649 193.908 2.03461 199.169 2.24221C202.754 2.38368 203.213 6.48112 203.213 6.48112Z" fill="#2B2B2B"/>
<path opacity="0.6" d="M181.236 8.63574C181.236 8.63574 178.921 13.13 184.428 15.6523" stroke="#FFECE3" stroke-width="0.385994" stroke-miterlimit="10"/>
<path opacity="0.6" d="M182.393 9.99316C182.393 9.99316 181.555 12.8668 185.427 14.5432" stroke="#FFECE3" stroke-width="0.385994" stroke-miterlimit="10"/>
<path opacity="0.6" d="M183.872 10.3916C183.872 10.3916 183.79 12.1076 186.464 13.2256" stroke="#FFECE3" stroke-width="0.385994" stroke-miterlimit="10"/>
<path d="M195.205 33.4137C195.205 33.4137 188.914 37.8798 189.456 40.9024C189.998 43.925 193.486 44.5449 193.486 44.5449C193.486 44.5449 190.63 46.6371 191.942 49.2721C193.254 51.9071 199.608 54.3092 199.608 54.3092C199.608 54.3092 204.578 52.7594 207.208 50.8996C209.838 49.0398 209.761 45.6709 207.746 44.3327C207.746 44.3327 212.473 42.7622 214.333 39.4296C216.192 36.097 210.85 31.8633 210.85 31.8633L195.205 33.4137Z" fill="#FFECE3"/>
<path d="M198.657 55.4297C198.657 55.4297 198.198 61.8781 198.657 66.9865C199.116 72.0949 199.475 74.8622 198.657 79.0666C197.839 83.271 197.95 88.0597 198.453 92.3705C198.956 96.6807 199.525 98.8097 198.602 105.089C197.679 111.368 198.145 119.764 199.145 124.547" stroke="#2B2B2B" stroke-width="0.385994" stroke-miterlimit="10" stroke-linecap="round" stroke-linejoin="round"/>
<path d="M155.746 93.7975C155.746 93.7975 153.733 102.018 152.026 112.014C150.318 122.011 157.236 129.65 165.219 126.894C173.201 124.139 176.074 118.654 176.074 118.654L172.91 107.64L174.655 93.7969H155.746V93.7975Z" fill="#B75149"/>
<path d="M171.165 61.8477L174.655 70.6055" stroke="#2B2B2B" stroke-width="0.385994" stroke-miterlimit="10" stroke-linecap="round" stroke-linejoin="round"/>
<path d="M232.695 66.2266C232.695 66.2266 227.025 74.8033 225.55 83.0281" stroke="#2B2B2B" stroke-width="0.385994" stroke-miterlimit="10" stroke-linecap="round" stroke-linejoin="round"/>
<path d="M169.901 76.1658L162.398 69.9395" stroke="#2B2B2B" stroke-width="0.385994" stroke-miterlimit="10" stroke-linecap="round" stroke-linejoin="round"/>
<path d="M167.666 75.6868L161.36 73.4658" stroke="#2B2B2B" stroke-width="0.385994" stroke-miterlimit="10" stroke-linecap="round" stroke-linejoin="round"/>
<path d="M163.196 112.014C163.196 112.014 161.121 113.682 160.801 117.354C160.482 121.026 163.196 122.861 163.196 122.861" stroke="#2B2B2B" stroke-width="0.385994" stroke-miterlimit="10" stroke-linecap="round" stroke-linejoin="round"/>
<path d="M166.868 118.661L166.15 120.907" stroke="#2B2B2B" stroke-width="0.385994" stroke-miterlimit="10" stroke-linecap="round" stroke-linejoin="round"/>
<path d="M168.891 118.661L168.173 120.907" stroke="#2B2B2B" stroke-width="0.385994" stroke-miterlimit="10" stroke-linecap="round" stroke-linejoin="round"/>
<path d="M170.914 118.661L170.195 120.907" stroke="#2B2B2B" stroke-width="0.385994" stroke-miterlimit="10" stroke-linecap="round" stroke-linejoin="round"/>
<path d="M172.937 118.661L172.219 120.907" stroke="#2B2B2B" stroke-width="0.385994" stroke-miterlimit="10" stroke-linecap="round" stroke-linejoin="round"/>
<path d="M201.63 16.7774C201.63 16.7774 201.511 14.3828 203.626 14.1033C205.741 13.8238 206.26 17.9351 205.382 19.0921C204.504 20.2498 203.426 20.2095 203.426 20.2095L206.619 30.6265L210.85 31.8635L200.194 52.7372L195.205 33.4133L196.203 32.8216L195.684 29.8283C195.684 29.8283 191.812 30.0675 190.455 26.4756C189.098 22.8836 189.378 20.8881 188.62 19.3716C187.861 17.8551 186.464 16.0189 186.464 16.0189C186.464 16.0189 187.662 16.8298 190.096 14.0895C190.096 14.0895 194.247 16.6176 198.438 11.3096C198.438 11.3096 198.996 16.219 201.63 16.7774Z" fill="#B75149"/>
<path opacity="0.5" d="M195.684 29.8291C198.77 29.8424 201.484 27.7669 202.496 26.623C202.496 26.623 201.858 30.9948 196.031 31.8287L195.684 29.8291Z" fill="#B75149"/>
<path d="M196.203 32.8223L196.615 35.2434" stroke="#2B2B2B" stroke-width="0.385994" stroke-miterlimit="10" stroke-linecap="round" stroke-linejoin="round"/>
<path d="M207.208 34.3574L203.181 36.5514" stroke="#2B2B2B" stroke-width="0.385994" stroke-miterlimit="10" stroke-linecap="round" stroke-linejoin="round"/>
<path d="M202.708 17.8686C202.382 17.0422 202.186 15.8719 202.954 15.1715C203.548 14.6769 204.549 14.8397 204.887 15.5246C205.3 16.3694 205.247 17.4471 204.73 18.2142C204.854 17.6438 204.779 17.0629 204.681 16.531C204.562 16.0031 204.311 15.5206 203.91 15.4861C203.454 15.4286 203.081 15.6724 202.919 16.19C202.753 16.6914 202.725 17.2792 202.708 17.8686Z" fill="#2B2B2B"/>
<path d="M191.865 18.0557L192.371 21.4348L194.287 20.8897" stroke="#2B2B2B" stroke-width="0.459834" stroke-miterlimit="10" stroke-linecap="round" stroke-linejoin="round"/>
<path d="M197.54 19.9512L198.457 20.9087" stroke="#2B2B2B" stroke-width="0.459834" stroke-miterlimit="10" stroke-linecap="round" stroke-linejoin="round"/>
<path d="M194.465 25.2388C194.465 25.2388 195.551 24.5206 196.429 24.8133" stroke="#2B2B2B" stroke-width="0.385994" stroke-miterlimit="10" stroke-linecap="round" stroke-linejoin="round"/>
<path d="M190.887 19.088C191.028 19.5539 190.954 19.9892 190.721 20.0594C190.488 20.1301 190.185 19.8092 190.043 19.3434C189.903 18.8776 189.977 18.4422 190.21 18.3721C190.443 18.3013 190.746 18.6222 190.887 19.088Z" fill="#2B2B2B"/>
<path d="M195.641 17.6486C195.782 18.1144 195.707 18.5498 195.475 18.6199C195.242 18.6907 194.938 18.3698 194.797 17.9039C194.656 17.4381 194.73 17.0028 194.964 16.9326C195.196 16.8619 195.5 17.1822 195.641 17.6486Z" fill="#2B2B2B"/>
<path d="M193.469 15.8604C194.078 15.0179 195.473 14.9046 196.223 15.6252C195.243 15.7454 194.482 15.7955 193.469 15.8604Z" fill="#2B2B2B"/>
<path d="M188.888 17.0502C189.145 16.3647 190.148 16.1381 190.659 16.6959C189.976 17.0093 189.638 17.0875 188.888 17.0502Z" fill="#2B2B2B"/>
<path opacity="0.5" d="M200.248 20.2374C200.248 21.3542 199.342 22.26 198.225 22.26C197.108 22.26 196.203 21.3548 196.203 20.2374C196.203 19.1206 197.108 18.2148 198.225 18.2148C199.342 18.2148 200.248 19.12 200.248 20.2374Z" fill="#B75149"/>
<path d="M197.978 20.3896C197.978 20.3896 196.934 22.6049 193.076 23.6026" stroke="#2B2B2B" stroke-width="0.459834" stroke-miterlimit="10" stroke-linecap="round" stroke-linejoin="round"/>
<path d="M227.437 95.2432L228.714 108.756L193.623 117.057C193.623 117.057 188.803 114.283 187.046 114.741C185.29 115.199 192.12 118.657 189.441 118.657C186.691 118.657 180.501 118.657 180.501 118.657C180.501 118.657 180.742 123.182 185.491 123.022C190.239 122.862 194.729 121.843 194.729 121.843C194.729 121.843 215.623 126.215 233.184 126.854C250.745 127.493 255.294 120.681 255.814 112.592C256.332 104.504 255.814 95.2437 255.814 95.2437H227.437V95.2432Z" fill="#B75149"/>
<path d="M182.302 118.657C182.302 118.657 182.501 120.228 184.018 120.508C185.534 120.787 186.213 118.563 189.247 118.657" stroke="#2B2B2B" stroke-width="0.385994" stroke-miterlimit="10" stroke-linecap="round" stroke-linejoin="round"/>
<path d="M184.218 118.656L185.257 120.203" stroke="#2B2B2B" stroke-width="0.385994" stroke-miterlimit="10" stroke-linecap="round" stroke-linejoin="round"/>
<path d="M186.293 118.656L186.766 119.218" stroke="#2B2B2B" stroke-width="0.385994" stroke-miterlimit="10" stroke-linecap="round" stroke-linejoin="round"/>
<path d="M193.278 118.657C193.278 118.657 193.438 119.722 195.566 118.285" stroke="#2B2B2B" stroke-width="0.385994" stroke-miterlimit="10" stroke-linecap="round" stroke-linejoin="round"/>
<path d="M228.714 108.756L238.936 106.1" stroke="#2B2B2B" stroke-width="0.385994" stroke-miterlimit="10" stroke-linecap="round" stroke-linejoin="round"/>
<path opacity="0.5" d="M250.815 119.769C249.889 121.073 248.614 121.757 247.967 121.297C247.32 120.838 247.546 119.409 248.472 118.105C249.398 116.801 250.673 116.117 251.32 116.577C251.966 117.036 251.74 118.466 250.815 119.769Z" fill="#B75149"/>
<path d="M193.706 81.3507L192.703 81.2242C192.72 81.0913 194.318 67.9001 189.876 62.2649C188.748 60.8336 187.305 60.0112 185.587 59.8203C183.833 59.6253 182.422 60.0975 181.269 61.2643C176.521 66.0737 178.275 80.6945 178.292 80.8417L177.289 80.9665C177.212 80.346 175.458 65.712 180.549 60.5547C181.915 59.1739 183.647 58.5873 185.698 58.8156C187.696 59.0376 189.369 59.9888 190.67 61.6404C195.373 67.608 193.776 80.7923 193.706 81.3507Z" fill="#FFECE3"/>
<path d="M171.365 76.583L200.248 119.447L207.917 117.154L203.991 76.6411L171.365 76.583Z" fill="#992602"/>
<path d="M164.539 76.4424L160.941 117.427L200.248 119.447L197.165 76.5005L164.539 76.4424Z" fill="#F85826"/>
<path d="M200.248 119.447L197.165 76.501" stroke="#2B2B2B" stroke-width="0.385994" stroke-miterlimit="10" stroke-linecap="round" stroke-linejoin="round"/>
<path d="M173.722 80.7092C173.522 81.3987 172.874 81.8174 172.273 81.6431C171.672 81.4689 171.347 80.769 171.547 80.0789C171.747 79.3894 172.396 78.9707 172.997 79.145C173.597 79.3192 173.922 80.0191 173.722 80.7092Z" fill="#FFECE3"/>
<path d="M189.169 80.7189C188.969 81.4085 188.32 81.8271 187.72 81.6529C187.119 81.4792 186.794 80.7788 186.994 80.0887C187.194 79.3991 187.843 78.9805 188.443 79.1547C189.044 79.3284 189.369 80.0289 189.169 80.7189Z" fill="#FFECE3"/>
<path d="M188.711 80.7033L187.711 80.5567C187.727 80.4468 189.266 69.5485 185.281 64.3843C184.108 62.8643 182.547 61.9862 180.643 61.7745C178.713 61.5589 177.186 62.0569 175.981 63.2956C171.644 67.7467 173.281 80.054 173.298 80.1777L172.296 80.3157C172.224 79.7901 170.575 67.396 175.257 62.5906C176.674 61.1362 178.525 60.5214 180.755 60.7693C182.943 61.0126 184.735 62.0218 186.082 63.7678C190.329 69.2724 188.778 80.2392 188.711 80.7033Z" fill="#FFECE3"/>
<path d="M194.893 76.4961L195.941 115.309L165.663 114.066L168.663 76.449L167.648 76.4473L164.571 115.033L196.981 116.364L195.904 76.4979L194.893 76.4961Z" fill="#FFECE3"/>
<path d="M290.89 24.9081C293.722 28.2832 293.235 31.529 294.33 34.8127C295.425 38.0964 300.272 41.1449 306.057 42.318C311.843 43.4906 316.221 53.4976 307.621 57.25C299.021 61.0024 272.362 63.7386 267.359 60.1426C262.355 56.5466 262.433 52.0904 264.388 48.8067C266.343 45.5229 267.046 42.8649 265.483 41.0672C263.919 39.2689 261.125 37.4712 263.148 34.0311C265.17 30.591 264.623 29.262 263.059 27.6201C261.495 25.9783 259.957 18.305 274.094 16.2002C274.094 16.2002 286.121 19.2251 290.89 24.9081Z" fill="#130805"/>
<path d="M305.06 107.832L306.532 121.239L267.388 124.864L267.309 111.174L305.06 107.832Z" fill="#FFA19A"/>
<path d="M272.841 50.4082C268.183 51.9764 247.142 97.1099 247.142 97.1099L228.064 105.933L229.481 109.102C229.481 109.102 250.452 111.173 255.178 107.685C262.065 102.602 271.479 77.8545 271.479 77.8545L272.841 50.4082Z" fill="#B75149"/>
<path d="M213.522 106.536H250.631V77.854H213.522V106.536Z" fill="#FDC103"/>
<path d="M212.899 83.5977H251.254V77.8543H212.899V83.5977Z" fill="#F85826"/>
<path d="M250.631 87.4609H213.522" stroke="#FFECE3" stroke-width="0.385994" stroke-miterlimit="10"/>
<path d="M230.72 106.536H233.433V77.854H230.72V106.536Z" fill="black"/>
<path d="M213.522 83.5977V86.3115H250.631V83.5977H213.522Z" fill="black"/>
<path d="M232.077 77.8543C232.077 77.8543 230.278 73.3163 226.23 70.2506C222.183 67.1843 217.523 69.9642 218.953 73.5619C220.384 77.159 227.497 78.7129 232.077 77.8543Z" stroke="#2B2B2B" stroke-width="0.385994" stroke-miterlimit="10" stroke-linecap="round" stroke-linejoin="round"/>
<path d="M232.077 77.8543C232.077 77.8543 233.876 73.3163 237.923 70.2506C241.97 67.1843 246.631 69.9642 245.2 73.5619C243.769 77.159 236.655 78.7129 232.077 77.8543Z" stroke="#2B2B2B" stroke-width="0.385994" stroke-miterlimit="10" stroke-linecap="round" stroke-linejoin="round"/>
<path d="M286.77 47.2881C286.77 47.2881 294.155 47.7683 296.853 52.6058C299.55 57.4434 300.271 58.7149 301.575 63.6853C302.878 68.6558 306.23 80.8273 308.846 86.9651C311.463 93.103 320.048 108.802 320.048 108.802C320.048 108.802 317.35 112.4 310.972 112.236C304.594 112.073 303.123 111.583 299.77 112.89C296.418 114.199 292.166 116.733 286.442 115.752C280.719 114.771 276.876 114.199 274.014 115.18C271.153 116.161 267.146 117.174 263.058 115.973L263.976 92.8281C264.015 91.8269 263.712 90.8458 263.126 90.0332C261.75 88.1274 259.252 84.1789 258.725 80.021C258.091 75.0236 263.222 67.593 266.247 61.7059C269.272 55.8188 272.466 49.7684 274.263 49.2779C276.059 48.7867 286.77 47.2881 286.77 47.2881Z" fill="#465ECB"/>
<path d="M265.589 127.526C265.589 127.526 243.272 196.044 242.127 218.775H280.902C280.902 218.775 281.374 207.001 286.607 190.484L291.349 218.775H327.162C327.162 218.775 321.275 179.365 320.048 165.628C318.821 151.892 317.922 136.838 308.846 124.864L309.474 119.187C309.474 119.187 307.379 117.846 304.965 118.598C302.55 119.35 301.935 120.577 299.381 120.168C296.827 119.759 295.764 119.105 293.229 119.595C290.694 120.086 289.222 121.231 287.179 121.231C285.134 121.231 284.876 120.086 282.021 120.332C279.165 120.577 279.165 121.64 277.367 121.722C275.568 121.803 274.69 120.822 272.84 121.149C270.989 121.477 270.682 122.375 269.027 122.212C267.371 122.05 266.982 121.394 263.794 121.967L265.589 127.526Z" fill="#CC75C4"/>
<path d="M307.22 124.863C307.22 124.863 288.457 129.706 267.309 127.525" stroke="#2B2B2B" stroke-width="0.385994" stroke-miterlimit="10" stroke-linecap="round" stroke-linejoin="round"/>
<path d="M285.788 185.742L275.651 128.052" stroke="#2B2B2B" stroke-width="0.385994" stroke-miterlimit="10" stroke-linecap="round" stroke-linejoin="round"/>
<path d="M272.849 127.947C272.849 127.947 273.025 143.781 278.835 146.174" stroke="#2B2B2B" stroke-width="0.385994" stroke-miterlimit="10" stroke-linecap="round" stroke-linejoin="round"/>
<path d="M297.549 126.477L318.256 218.775" stroke="#2B2B2B" stroke-width="0.385994" stroke-miterlimit="10" stroke-linecap="round" stroke-linejoin="round"/>
<path d="M293.346 127.235C293.346 127.235 294.303 145.172 302.993 150.739" stroke="#2B2B2B" stroke-width="0.385994" stroke-miterlimit="10" stroke-linecap="round" stroke-linejoin="round"/>
<path d="M313.811 133.327H305.685C305.685 133.327 308.982 148.999 318.345 149.764" stroke="#2B2B2B" stroke-width="0.385994" stroke-miterlimit="10" stroke-linecap="round" stroke-linejoin="round"/>
<path d="M268.237 14.1467C268.237 14.1467 263.495 13.6561 261.75 16.8179C260.006 19.9797 263.167 26.8203 262.186 28.7692C261.205 30.7182 258.48 33.0616 260.005 35.4603C261.532 37.8589 265.116 39.0321 266.029 40.0011C267.678 41.7516 270.907 48.3248 274.45 48.3248C277.993 48.3248 278.211 44.4545 278.211 44.4545L277.126 17.9082C277.127 17.9077 273.524 14.4739 268.237 14.1467Z" fill="#130805"/>
<path d="M271.453 18.2891C271.453 18.2891 268.02 18.725 267.311 21.1236C266.602 23.5223 266.112 25.7024 266.112 25.7024L264.204 26.3022C264.204 26.3022 263.667 35.2033 266.929 37.4766C268.728 38.7303 271.399 38.2944 271.399 38.2944C271.399 38.2944 275.16 45.817 274.452 48.3243C273.743 50.8317 269.546 56.2829 270.309 57.9178C271.072 59.5533 274.288 57.6452 275.814 56.0097C277.341 54.3742 281.865 48.2691 286.771 47.288L280.393 32.8978C280.393 32.8978 284.645 29.6273 282.846 26.3569C281.047 23.0864 277.667 25.1578 277.667 25.1578L271.453 18.2891Z" fill="#B75149"/>
<path d="M278.594 29.055C278.26 26.0675 280.929 26.0111 280.895 28.9619C280.88 29.537 280.745 30.146 280.366 30.5813C280.612 30.0683 280.624 29.5082 280.594 28.9705C280.332 26.4091 278.88 26.6506 278.594 29.055Z" fill="#2B2B2B"/>
<path opacity="0.4" d="M277.04 35.459C277.04 35.459 278.039 40.8705 273.266 42.5647C272.395 40.2879 271.399 38.2936 271.399 38.2936C274.724 37.9939 276.659 36.1675 277.04 35.459Z" fill="#B75149"/>
<path d="M280.393 49.2773L276.509 50.872" stroke="#2B2B2B" stroke-width="0.385994" stroke-miterlimit="10" stroke-linecap="round" stroke-linejoin="round"/>
<path d="M264.858 26.956C265.33 26.8415 265.733 26.9795 266.03 27.3648C265.557 27.481 265.156 27.339 264.858 26.956Z" fill="#2B2B2B"/>
<path d="M267.679 35.9504C268.438 36.0263 268.938 35.9516 269.682 35.7871C269.271 36.4473 268.179 36.5606 267.679 35.9504Z" fill="#2B2B2B"/>
<path d="M268.116 21.696C269.159 21.0168 270.781 21.2975 271.453 22.3775C270.387 21.746 269.34 21.5793 268.116 21.696Z" fill="#2B2B2B"/>
<path opacity="0.4" d="M269.785 29.3995C269.785 30.6359 270.788 31.6383 272.025 31.6383C273.261 31.6383 274.263 30.6359 274.263 29.3995C274.263 28.1631 273.261 27.1602 272.025 27.1602C270.788 27.1602 269.785 28.1625 269.785 29.3995Z" fill="#B75149"/>
<path d="M268.454 24.6647C268.454 25.058 268.773 25.3772 269.167 25.3772C269.56 25.3772 269.879 25.058 269.879 24.6647C269.879 24.2713 269.56 23.9521 269.167 23.9521C268.773 23.9527 268.454 24.2713 268.454 24.6647Z" fill="#2B2B2B"/>
<path d="M282.883 21.5051C285.436 21.5051 287.506 19.435 287.506 16.8815C287.506 14.3279 285.436 12.2578 282.883 12.2578C280.329 12.2578 278.259 14.3279 278.259 16.8815C278.259 19.435 280.329 21.5051 282.883 21.5051Z" fill="#130805"/>
<path d="M264.445 31.0041L270.896 29.1943C270.896 29.1943 271.251 33.4097 268.662 34.029C266.407 34.5679 264.445 31.0041 264.445 31.0041Z" fill="#FFECE3"/>
<path d="M294.237 83.5979C294.237 83.5979 300.823 87.7937 302.18 76.5905C303.536 65.388 299.855 56.3794 296.271 51.827C292.687 47.2747 283.597 45.3367 280.393 56.4277C277.189 67.5187 267.31 110.323 267.31 110.323L232.827 107.039C232.827 107.039 232.361 106.029 229.843 105.254C227.324 104.48 225.755 102.583 224.593 102.971C223.431 103.358 228.468 106.132 226.724 106.537H220.73C220.73 106.537 224.884 112.366 232.051 111.881C232.051 111.881 259.269 127.476 271.668 130.479C284.066 133.481 289.878 125.055 291.428 113.335C292.978 101.614 294.237 83.5979 294.237 83.5979Z" fill="#B75149"/>
<path d="M267.309 110.323L275.651 111.174" stroke="#2B2B2B" stroke-width="0.385994" stroke-miterlimit="10" stroke-linecap="round" stroke-linejoin="round"/>
<path opacity="0.4" d="M277.166 127.448C277.317 128.121 278.522 128.424 279.858 128.126C281.195 127.828 282.158 127.041 282.007 126.368C281.857 125.695 280.652 125.392 279.315 125.69C277.978 125.988 277.016 126.775 277.166 127.448Z" fill="#FFA19A"/>
<path d="M294.237 83.5975L295.329 65.7666" stroke="#2B2B2B" stroke-width="0.385994" stroke-miterlimit="10" stroke-linecap="round" stroke-linejoin="round"/>
<path opacity="0.6" d="M286.995 31.334C289.787 32.5877 290.997 33.8114 292.62 38.3638C294.243 42.9161 295.226 44.156 298.4 45.3907C301.574 46.6254 303.417 49.3593 303.526 52.1956" stroke="#FFECE3" stroke-width="0.385994" stroke-miterlimit="10"/>
<path opacity="0.6" d="M284.947 33.7598C287.739 35.0134 288.949 36.2372 290.572 40.7895C292.196 45.3419 293.178 46.5818 296.352 47.8164C299.526 49.0511 301.369 51.7851 301.479 54.6214" stroke="#FFECE3" stroke-width="0.385994" stroke-miterlimit="10"/>
</svg>
