<svg width="12" height="12" viewBox="0 0 12 12" fill="none" xmlns="http://www.w3.org/2000/svg">
<path d="M6.48718 0.288091C6.61348 -0.177726 7.30679 -0.0438043 7.25052 0.435541L6.85666 3.79072C6.82164 4.08903 7.12295 4.31319 7.3986 4.1939L10.499 2.85219C10.9419 2.6605 11.2695 3.28605 10.8596 3.54092L7.99085 5.32491C7.73579 5.48352 7.74841 5.85886 8.01353 6L10.9956 7.58741C11.4216 7.8142 11.1368 8.46032 10.682 8.2988L7.49853 7.16821C7.2155 7.0677 6.92991 7.31158 6.98487 7.60686L7.60305 10.928C7.69137 11.4025 7.00861 11.5827 6.85133 11.1264L5.75043 7.93258C5.65255 7.64863 5.28381 7.5774 5.08722 7.80448L2.87604 10.3585C2.56014 10.7234 1.9936 10.3019 2.25228 9.89446L4.06289 7.04244C4.22387 6.78887 4.04965 6.45617 3.74955 6.44405L0.374078 6.30769C-0.108165 6.28821 -0.131877 5.58249 0.347971 5.53068L3.70668 5.16807C4.00529 5.13583 4.15678 4.79219 3.97915 4.55L1.98118 1.82593C1.69574 1.43675 2.23271 0.978204 2.5724 1.32106L4.95002 3.72092C5.16141 3.93429 5.52453 3.83847 5.60313 3.54859L6.48718 0.288091Z" fill="#F85826"/>
</svg>
